<svg width="289" height="81" viewBox="0 0 289 81" fill="none" xmlns="http://www.w3.org/2000/svg">
<g filter="url(#filter0_d_2002_215)">
<path d="M36.1538 11L0 31.2564L36.6667 51L65.8974 33.8205V57.1539L72.8205 57.4103V31.2564L36.1538 11Z" fill="#0393F5"/>
<path d="M12.5641 58.1795V44.8462L36.1538 57.4103L60 44.8462V58.1795L36.6667 71L12.5641 58.1795Z" fill="#0393F5"/>
<path d="M94.1896 33V9.16H110.03V13H98.5416V19.112H109.39V22.952H98.5416V29.16H110.03V33H94.1896ZM114.373 26.152V22.472H127.973V26.152H114.373ZM141.432 33.384C139.747 33.384 138.243 32.9893 136.92 32.2C135.598 31.3893 134.552 30.2907 133.784 28.904C133.016 27.5173 132.632 25.9813 132.632 24.296C132.632 22.5893 133.016 21.0533 133.784 19.688C134.552 18.3227 135.598 17.2347 136.92 16.424C138.264 15.6133 139.758 15.208 141.4 15.208C142.723 15.208 143.896 15.4747 144.92 16.008C145.966 16.52 146.787 17.2453 147.384 18.184L146.744 19.048V8.776H150.936V33H146.968V29.64L147.416 30.472C146.819 31.4107 145.987 32.136 144.92 32.648C143.854 33.1387 142.691 33.384 141.432 33.384ZM141.88 29.544C142.84 29.544 143.683 29.32 144.408 28.872C145.134 28.424 145.699 27.8053 146.104 27.016C146.531 26.2267 146.744 25.32 146.744 24.296C146.744 23.2933 146.531 22.3973 146.104 21.608C145.699 20.7973 145.134 20.168 144.408 19.72C143.683 19.272 142.84 19.048 141.88 19.048C140.942 19.048 140.099 19.2827 139.352 19.752C138.606 20.2 138.019 20.8187 137.592 21.608C137.187 22.376 136.984 23.272 136.984 24.296C136.984 25.32 137.187 26.2267 137.592 27.016C138.019 27.8053 138.606 28.424 139.352 28.872C140.099 29.32 140.942 29.544 141.88 29.544ZM161.684 33.384C160.34 33.384 159.167 33.0853 158.164 32.488C157.183 31.8907 156.426 31.0587 155.892 29.992C155.38 28.9253 155.124 27.6773 155.124 26.248V15.592H159.316V25.896C159.316 26.6213 159.455 27.2613 159.732 27.816C160.031 28.3493 160.447 28.776 160.98 29.096C161.535 29.3947 162.154 29.544 162.836 29.544C163.519 29.544 164.127 29.3947 164.66 29.096C165.194 28.776 165.61 28.3387 165.908 27.784C166.207 27.2293 166.356 26.568 166.356 25.8V15.592H170.548V33H166.58V29.576L166.932 30.184C166.527 31.2507 165.855 32.0507 164.916 32.584C163.999 33.1173 162.922 33.384 161.684 33.384ZM183.469 33.384C181.741 33.384 180.184 32.9893 178.797 32.2C177.432 31.3893 176.354 30.3013 175.565 28.936C174.776 27.5493 174.381 25.992 174.381 24.264C174.381 22.536 174.776 20.9893 175.565 19.624C176.354 18.2587 177.432 17.1813 178.797 16.392C180.184 15.6027 181.741 15.208 183.469 15.208C184.706 15.208 185.858 15.432 186.925 15.88C187.992 16.3067 188.909 16.904 189.677 17.672C190.466 18.4187 191.032 19.3147 191.373 20.36L187.693 21.96C187.373 21.0853 186.829 20.3813 186.061 19.848C185.314 19.3147 184.45 19.048 183.469 19.048C182.552 19.048 181.73 19.272 181.005 19.72C180.301 20.168 179.746 20.7867 179.341 21.576C178.936 22.3653 178.733 23.272 178.733 24.296C178.733 25.32 178.936 26.2267 179.341 27.016C179.746 27.8053 180.301 28.424 181.005 28.872C181.73 29.32 182.552 29.544 183.469 29.544C184.472 29.544 185.346 29.2773 186.093 28.744C186.84 28.2107 187.373 27.496 187.693 26.6L191.373 28.264C191.032 29.2453 190.477 30.1307 189.709 30.92C188.941 31.688 188.024 32.296 186.957 32.744C185.89 33.1707 184.728 33.384 183.469 33.384ZM200.411 33.384C199.195 33.384 198.139 33.1813 197.243 32.776C196.347 32.3707 195.654 31.7947 195.163 31.048C194.673 30.28 194.427 29.3947 194.427 28.392C194.427 27.432 194.641 26.5787 195.067 25.832C195.494 25.064 196.155 24.424 197.051 23.912C197.947 23.4 199.078 23.0373 200.443 22.824L206.139 21.896V25.096L201.243 25.928C200.411 26.0773 199.793 26.344 199.387 26.728C198.982 27.112 198.779 27.6133 198.779 28.232C198.779 28.8293 199.003 29.3093 199.451 29.672C199.921 30.0133 200.497 30.184 201.179 30.184C202.054 30.184 202.822 30.0027 203.483 29.64C204.166 29.256 204.689 28.7333 205.051 28.072C205.435 27.4107 205.627 26.6853 205.627 25.896V21.416C205.627 20.6693 205.329 20.0507 204.731 19.56C204.155 19.048 203.387 18.792 202.427 18.792C201.531 18.792 200.731 19.0373 200.027 19.528C199.345 19.9973 198.843 20.6267 198.523 21.416L195.099 19.752C195.441 18.8347 195.974 18.0453 196.699 17.384C197.446 16.7013 198.321 16.168 199.323 15.784C200.326 15.4 201.414 15.208 202.587 15.208C204.017 15.208 205.275 15.4747 206.363 16.008C207.451 16.52 208.294 17.2453 208.891 18.184C209.51 19.1013 209.819 20.1787 209.819 21.416V33H205.851V30.024L206.747 29.96C206.299 30.7067 205.766 31.336 205.147 31.848C204.529 32.3387 203.825 32.7227 203.035 33C202.246 33.256 201.371 33.384 200.411 33.384ZM221.957 33.192C219.995 33.192 218.469 32.6587 217.381 31.592C216.315 30.504 215.781 28.9787 215.781 27.016V19.336H212.773V15.592H213.093C213.947 15.592 214.608 15.368 215.077 14.92C215.547 14.472 215.781 13.8213 215.781 12.968V11.624H219.973V15.592H223.973V19.336H219.973V26.792C219.973 27.368 220.069 27.8587 220.261 28.264C220.475 28.6693 220.795 28.9787 221.221 29.192C221.669 29.4053 222.235 29.512 222.917 29.512C223.067 29.512 223.237 29.5013 223.429 29.48C223.643 29.4587 223.845 29.4373 224.037 29.416V33C223.739 33.0427 223.397 33.0853 223.013 33.128C222.629 33.1707 222.277 33.192 221.957 33.192ZM227.88 33V15.592H232.072V33H227.88ZM227.88 13.64V9.16H232.072V13.64H227.88ZM245.095 33.384C243.388 33.384 241.831 32.9893 240.423 32.2C239.036 31.4107 237.927 30.3333 237.095 28.968C236.284 27.6027 235.879 26.0453 235.879 24.296C235.879 22.5467 236.284 20.9893 237.095 19.624C237.927 18.2587 239.036 17.1813 240.423 16.392C241.809 15.6027 243.367 15.208 245.095 15.208C246.801 15.208 248.348 15.6027 249.735 16.392C251.121 17.1813 252.22 18.2587 253.031 19.624C253.863 20.968 254.279 22.5253 254.279 24.296C254.279 26.0453 253.863 27.6027 253.031 28.968C252.199 30.3333 251.089 31.4107 249.703 32.2C248.316 32.9893 246.78 33.384 245.095 33.384ZM245.095 29.544C246.033 29.544 246.855 29.32 247.559 28.872C248.284 28.424 248.849 27.8053 249.255 27.016C249.681 26.2053 249.895 25.2987 249.895 24.296C249.895 23.272 249.681 22.376 249.255 21.608C248.849 20.8187 248.284 20.2 247.559 19.752C246.855 19.2827 246.033 19.048 245.095 19.048C244.135 19.048 243.292 19.2827 242.567 19.752C241.841 20.2 241.265 20.8187 240.839 21.608C240.433 22.376 240.231 23.272 240.231 24.296C240.231 25.2987 240.433 26.2053 240.839 27.016C241.265 27.8053 241.841 28.424 242.567 28.872C243.292 29.32 244.135 29.544 245.095 29.544ZM258.098 33V15.592H262.034V19.016L261.714 18.408C262.119 17.3627 262.78 16.5733 263.698 16.04C264.636 15.4853 265.724 15.208 266.962 15.208C268.242 15.208 269.372 15.4853 270.354 16.04C271.356 16.5947 272.135 17.3733 272.69 18.376C273.244 19.3573 273.522 20.4987 273.522 21.8V33H269.33V22.792C269.33 22.024 269.18 21.3627 268.882 20.808C268.583 20.2533 268.167 19.8267 267.634 19.528C267.122 19.208 266.514 19.048 265.81 19.048C265.127 19.048 264.519 19.208 263.986 19.528C263.452 19.8267 263.036 20.2533 262.738 20.808C262.439 21.3627 262.29 22.024 262.29 22.792V33H258.098Z" fill="#0393F5"/>
<path d="M132.447 64L140.671 40.16H146.303L154.527 64H149.791L148.095 58.88H138.879L137.151 64H132.447ZM140.127 55.04H146.847L142.879 43.168H144.095L140.127 55.04ZM164.939 64.384C163.254 64.384 161.75 63.9893 160.427 63.2C159.105 62.3893 158.059 61.2907 157.291 59.904C156.523 58.5173 156.139 56.9813 156.139 55.296C156.139 53.5893 156.523 52.0533 157.291 50.688C158.059 49.3227 159.105 48.2347 160.427 47.424C161.771 46.6133 163.265 46.208 164.907 46.208C166.23 46.208 167.403 46.4747 168.427 47.008C169.473 47.52 170.294 48.2453 170.891 49.184L170.251 50.048V39.776H174.443V64H170.475V60.64L170.923 61.472C170.326 62.4107 169.494 63.136 168.427 63.648C167.361 64.1387 166.198 64.384 164.939 64.384ZM165.387 60.544C166.347 60.544 167.19 60.32 167.915 59.872C168.641 59.424 169.206 58.8053 169.611 58.016C170.038 57.2267 170.251 56.32 170.251 55.296C170.251 54.2933 170.038 53.3973 169.611 52.608C169.206 51.7973 168.641 51.168 167.915 50.72C167.19 50.272 166.347 50.048 165.387 50.048C164.449 50.048 163.606 50.2827 162.859 50.752C162.113 51.2 161.526 51.8187 161.099 52.608C160.694 53.376 160.491 54.272 160.491 55.296C160.491 56.32 160.694 57.2267 161.099 58.016C161.526 58.8053 162.113 59.424 162.859 59.872C163.606 60.32 164.449 60.544 165.387 60.544ZM178.983 64V46.592H182.919V50.624L182.471 49.952C182.791 48.6933 183.431 47.7547 184.391 47.136C185.351 46.5173 186.482 46.208 187.783 46.208C189.213 46.208 190.471 46.5813 191.559 47.328C192.647 48.0747 193.351 49.056 193.671 50.272L192.487 50.368C193.021 48.9813 193.821 47.9467 194.887 47.264C195.954 46.56 197.181 46.208 198.567 46.208C199.805 46.208 200.903 46.4853 201.863 47.04C202.845 47.5947 203.613 48.3733 204.167 49.376C204.722 50.3573 204.999 51.4987 204.999 52.8V64H200.807V53.792C200.807 53.024 200.669 52.3627 200.391 51.808C200.114 51.2533 199.73 50.8267 199.239 50.528C198.749 50.208 198.151 50.048 197.447 50.048C196.786 50.048 196.199 50.208 195.687 50.528C195.175 50.8267 194.781 51.2533 194.503 51.808C194.226 52.3627 194.087 53.024 194.087 53.792V64H189.895V53.792C189.895 53.024 189.757 52.3627 189.479 51.808C189.202 51.2533 188.807 50.8267 188.295 50.528C187.805 50.208 187.218 50.048 186.535 50.048C185.874 50.048 185.287 50.208 184.775 50.528C184.263 50.8267 183.869 51.2533 183.591 51.808C183.314 52.3627 183.175 53.024 183.175 53.792V64H178.983ZM209.186 64V46.592H213.378V64H209.186ZM209.186 44.64V40.16H213.378V44.64H209.186ZM217.888 64V46.592H221.824V50.016L221.504 49.408C221.91 48.3627 222.571 47.5733 223.488 47.04C224.427 46.4853 225.515 46.208 226.752 46.208C228.032 46.208 229.163 46.4853 230.144 47.04C231.147 47.5947 231.926 48.3733 232.48 49.376C233.035 50.3573 233.312 51.4987 233.312 52.8V64H229.12V53.792C229.12 53.024 228.971 52.3627 228.672 51.808C228.374 51.2533 227.958 50.8267 227.424 50.528C226.912 50.208 226.304 50.048 225.6 50.048C224.918 50.048 224.31 50.208 223.776 50.528C223.243 50.8267 222.827 51.2533 222.528 51.808C222.23 52.3627 222.08 53.024 222.08 53.792V64H217.888Z" fill="#0393F5"/>
</g>
<defs>
<filter id="filter0_d_2002_215" x="0" y="8.77588" width="288.522" height="72.2241" filterUnits="userSpaceOnUse" color-interpolation-filters="sRGB">
<feFlood flood-opacity="0" result="BackgroundImageFix"/>
<feColorMatrix in="SourceAlpha" type="matrix" values="0 0 0 0 0 0 0 0 0 0 0 0 0 0 0 0 0 0 127 0" result="hardAlpha"/>
<feOffset dx="11" dy="6"/>
<feGaussianBlur stdDeviation="2"/>
<feComposite in2="hardAlpha" operator="out"/>
<feColorMatrix type="matrix" values="0 0 0 0 0 0 0 0 0 0 0 0 0 0 0 0 0 0 0.25 0"/>
<feBlend mode="normal" in2="BackgroundImageFix" result="effect1_dropShadow_2002_215"/>
<feBlend mode="normal" in="SourceGraphic" in2="effect1_dropShadow_2002_215" result="shape"/>
</filter>
</defs>
</svg>
