<svg width="289" height="70" viewBox="0 0 289 70" fill="none" xmlns="http://www.w3.org/2000/svg">
<g filter="url(#filter0_d_2002_215)">
<path d="M36.1538 0L0 20.2564L36.6667 40L65.8974 22.8205V46.1539L72.8205 46.4103V20.2564L36.1538 0Z" fill="#0393F5"/>
<path d="M12.5641 47.1795V33.8462L36.1538 46.4103L60 33.8462V47.1795L36.6667 60L12.5641 47.1795Z" fill="#0393F5"/>
<path d="M94.1896 43V19.16H110.03V23H98.5416V29.112H109.39V32.952H98.5416V39.16H110.03V43H94.1896ZM114.373 36.152V32.472H127.973V36.152H114.373ZM141.432 43.384C139.747 43.384 138.243 42.9893 136.92 42.2C135.598 41.3893 134.552 40.2907 133.784 38.904C133.016 37.5173 132.632 35.9813 132.632 34.296C132.632 32.5893 133.016 31.0533 133.784 29.688C134.552 28.3227 135.598 27.2347 136.92 26.424C138.264 25.6133 139.758 25.208 141.4 25.208C142.723 25.208 143.896 25.4747 144.92 26.008C145.966 26.52 146.787 27.2453 147.384 28.184L146.744 29.048V18.776H150.936V43H146.968V39.64L147.416 40.472C146.819 41.4107 145.987 42.136 144.92 42.648C143.854 43.1387 142.691 43.384 141.432 43.384ZM141.88 39.544C142.84 39.544 143.683 39.32 144.408 38.872C145.134 38.424 145.699 37.8053 146.104 37.016C146.531 36.2267 146.744 35.32 146.744 34.296C146.744 33.2933 146.531 32.3973 146.104 31.608C145.699 30.7973 145.134 30.168 144.408 29.72C143.683 29.272 142.84 29.048 141.88 29.048C140.942 29.048 140.099 29.2827 139.352 29.752C138.606 30.2 138.019 30.8187 137.592 31.608C137.187 32.376 136.984 33.272 136.984 34.296C136.984 35.32 137.187 36.2267 137.592 37.016C138.019 37.8053 138.606 38.424 139.352 38.872C140.099 39.32 140.942 39.544 141.88 39.544ZM161.684 43.384C160.34 43.384 159.167 43.0853 158.164 42.488C157.183 41.8907 156.426 41.0587 155.892 39.992C155.38 38.9253 155.124 37.6773 155.124 36.248V25.592H159.316V35.896C159.316 36.6213 159.455 37.2613 159.732 37.816C160.031 38.3493 160.447 38.776 160.98 39.096C161.535 39.3947 162.154 39.544 162.836 39.544C163.519 39.544 164.127 39.3947 164.66 39.096C165.194 38.776 165.61 38.3387 165.908 37.784C166.207 37.2293 166.356 36.568 166.356 35.8V25.592H170.548V43H166.58V39.576L166.932 40.184C166.527 41.2507 165.855 42.0507 164.916 42.584C163.999 43.1173 162.922 43.384 161.684 43.384ZM183.469 43.384C181.741 43.384 180.184 42.9893 178.797 42.2C177.432 41.3893 176.354 40.3013 175.565 38.936C174.776 37.5493 174.381 35.992 174.381 34.264C174.381 32.536 174.776 30.9893 175.565 29.624C176.354 28.2587 177.432 27.1813 178.797 26.392C180.184 25.6027 181.741 25.208 183.469 25.208C184.706 25.208 185.858 25.432 186.925 25.88C187.992 26.3067 188.909 26.904 189.677 27.672C190.466 28.4187 191.032 29.3147 191.373 30.36L187.693 31.96C187.373 31.0853 186.829 30.3813 186.061 29.848C185.314 29.3147 184.45 29.048 183.469 29.048C182.552 29.048 181.73 29.272 181.005 29.72C180.301 30.168 179.746 30.7867 179.341 31.576C178.936 32.3653 178.733 33.272 178.733 34.296C178.733 35.32 178.936 36.2267 179.341 37.016C179.746 37.8053 180.301 38.424 181.005 38.872C181.73 39.32 182.552 39.544 183.469 39.544C184.472 39.544 185.346 39.2773 186.093 38.744C186.84 38.2107 187.373 37.496 187.693 36.6L191.373 38.264C191.032 39.2453 190.477 40.1307 189.709 40.92C188.941 41.688 188.024 42.296 186.957 42.744C185.89 43.1707 184.728 43.384 183.469 43.384ZM200.411 43.384C199.195 43.384 198.139 43.1813 197.243 42.776C196.347 42.3707 195.654 41.7947 195.163 41.048C194.673 40.28 194.427 39.3947 194.427 38.392C194.427 37.432 194.641 36.5787 195.067 35.832C195.494 35.064 196.155 34.424 197.051 33.912C197.947 33.4 199.078 33.0373 200.443 32.824L206.139 31.896V35.096L201.243 35.928C200.411 36.0773 199.793 36.344 199.387 36.728C198.982 37.112 198.779 37.6133 198.779 38.232C198.779 38.8293 199.003 39.3093 199.451 39.672C199.921 40.0133 200.497 40.184 201.179 40.184C202.054 40.184 202.822 40.0027 203.483 39.64C204.166 39.256 204.689 38.7333 205.051 38.072C205.435 37.4107 205.627 36.6853 205.627 35.896V31.416C205.627 30.6693 205.329 30.0507 204.731 29.56C204.155 29.048 203.387 28.792 202.427 28.792C201.531 28.792 200.731 29.0373 200.027 29.528C199.345 29.9973 198.843 30.6267 198.523 31.416L195.099 29.752C195.441 28.8347 195.974 28.0453 196.699 27.384C197.446 26.7013 198.321 26.168 199.323 25.784C200.326 25.4 201.414 25.208 202.587 25.208C204.017 25.208 205.275 25.4747 206.363 26.008C207.451 26.52 208.294 27.2453 208.891 28.184C209.51 29.1013 209.819 30.1787 209.819 31.416V43H205.851V40.024L206.747 39.96C206.299 40.7067 205.766 41.336 205.147 41.848C204.529 42.3387 203.825 42.7227 203.035 43C202.246 43.256 201.371 43.384 200.411 43.384ZM221.957 43.192C219.995 43.192 218.469 42.6587 217.381 41.592C216.315 40.504 215.781 38.9787 215.781 37.016V29.336H212.773V25.592H213.093C213.947 25.592 214.608 25.368 215.077 24.92C215.547 24.472 215.781 23.8213 215.781 22.968V21.624H219.973V25.592H223.973V29.336H219.973V36.792C219.973 37.368 220.069 37.8587 220.261 38.264C220.475 38.6693 220.795 38.9787 221.221 39.192C221.669 39.4053 222.235 39.512 222.917 39.512C223.067 39.512 223.237 39.5013 223.429 39.48C223.643 39.4587 223.845 39.4373 224.037 39.416V43C223.739 43.0427 223.397 43.0853 223.013 43.128C222.629 43.1707 222.277 43.192 221.957 43.192ZM227.88 43V25.592H232.072V43H227.88ZM227.88 23.64V19.16H232.072V23.64H227.88ZM245.095 43.384C243.388 43.384 241.831 42.9893 240.423 42.2C239.036 41.4107 237.927 40.3333 237.095 38.968C236.284 37.6027 235.879 36.0453 235.879 34.296C235.879 32.5467 236.284 30.9893 237.095 29.624C237.927 28.2587 239.036 27.1813 240.423 26.392C241.809 25.6027 243.367 25.208 245.095 25.208C246.801 25.208 248.348 25.6027 249.735 26.392C251.121 27.1813 252.22 28.2587 253.031 29.624C253.863 30.968 254.279 32.5253 254.279 34.296C254.279 36.0453 253.863 37.6027 253.031 38.968C252.199 40.3333 251.089 41.4107 249.703 42.2C248.316 42.9893 246.78 43.384 245.095 43.384ZM245.095 39.544C246.033 39.544 246.855 39.32 247.559 38.872C248.284 38.424 248.849 37.8053 249.255 37.016C249.681 36.2053 249.895 35.2987 249.895 34.296C249.895 33.272 249.681 32.376 249.255 31.608C248.849 30.8187 248.284 30.2 247.559 29.752C246.855 29.2827 246.033 29.048 245.095 29.048C244.135 29.048 243.292 29.2827 242.567 29.752C241.841 30.2 241.265 30.8187 240.839 31.608C240.433 32.376 240.231 33.272 240.231 34.296C240.231 35.2987 240.433 36.2053 240.839 37.016C241.265 37.8053 241.841 38.424 242.567 38.872C243.292 39.32 244.135 39.544 245.095 39.544ZM258.098 43V25.592H262.034V29.016L261.714 28.408C262.119 27.3627 262.78 26.5733 263.698 26.04C264.636 25.4853 265.724 25.208 266.962 25.208C268.242 25.208 269.372 25.4853 270.354 26.04C271.356 26.5947 272.135 27.3733 272.69 28.376C273.244 29.3573 273.522 30.4987 273.522 31.8V43H269.33V32.792C269.33 32.024 269.18 31.3627 268.882 30.808C268.583 30.2533 268.167 29.8267 267.634 29.528C267.122 29.208 266.514 29.048 265.81 29.048C265.127 29.048 264.519 29.208 263.986 29.528C263.452 29.8267 263.036 30.2533 262.738 30.808C262.439 31.3627 262.29 32.024 262.29 32.792V43H258.098Z" fill="#0393F5"/>
</g>
<defs>
<filter id="filter0_d_2002_215" x="0" y="0" width="288.522" height="70" filterUnits="userSpaceOnUse" color-interpolation-filters="sRGB">
<feFlood flood-opacity="0" result="BackgroundImageFix"/>
<feColorMatrix in="SourceAlpha" type="matrix" values="0 0 0 0 0 0 0 0 0 0 0 0 0 0 0 0 0 0 127 0" result="hardAlpha"/>
<feOffset dx="11" dy="6"/>
<feGaussianBlur stdDeviation="2"/>
<feComposite in2="hardAlpha" operator="out"/>
<feColorMatrix type="matrix" values="0 0 0 0 0 0 0 0 0 0 0 0 0 0 0 0 0 0 0.25 0"/>
<feBlend mode="normal" in2="BackgroundImageFix" result="effect1_dropShadow_2002_215"/>
<feBlend mode="normal" in="SourceGraphic" in2="effect1_dropShadow_2002_215" result="shape"/>
</filter>
</defs>
</svg>
